<svg width="38" height="31" viewBox="0 0 38 31" fill="none" xmlns="http://www.w3.org/2000/svg">
<path d="M36.6429 26.5714H1.35714C0.997206 26.5714 0.652012 26.6881 0.397498 26.8957C0.142984 27.1033 0 27.3849 0 27.6786L0 29.8929C0 30.1865 0.142984 30.4681 0.397498 30.6757C0.652012 30.8834 0.997206 31 1.35714 31H36.6429C37.0028 31 37.348 30.8834 37.6025 30.6757C37.857 30.4681 38 30.1865 38 29.8929V27.6786C38 27.3849 37.857 27.1033 37.6025 26.8957C37.348 26.6881 37.0028 26.5714 36.6429 26.5714ZM36.6429 17.7143H1.35714C0.997206 17.7143 0.652012 17.8309 0.397498 18.0386C0.142984 18.2462 0 18.5278 0 18.8214L0 21.0357C0 21.3293 0.142984 21.611 0.397498 21.8186C0.652012 22.0262 0.997206 22.1429 1.35714 22.1429H36.6429C37.0028 22.1429 37.348 22.0262 37.6025 21.8186C37.857 21.611 38 21.3293 38 21.0357V18.8214C38 18.5278 37.857 18.2462 37.6025 18.0386C37.348 17.8309 37.0028 17.7143 36.6429 17.7143ZM36.6429 8.85714H1.35714C0.997206 8.85714 0.652012 8.97379 0.397498 9.18142C0.142984 9.38905 0 9.67065 0 9.96428L0 12.1786C0 12.4722 0.142984 12.7538 0.397498 12.9614C0.652012 13.1691 0.997206 13.2857 1.35714 13.2857H36.6429C37.0028 13.2857 37.348 13.1691 37.6025 12.9614C37.857 12.7538 38 12.4722 38 12.1786V9.96428C38 9.67065 37.857 9.38905 37.6025 9.18142C37.348 8.97379 37.0028 8.85714 36.6429 8.85714ZM36.6429 0H1.35714C0.997206 0 0.652012 0.116645 0.397498 0.324275C0.142984 0.531904 0 0.81351 0 1.10714L0 3.32143C0 3.61506 0.142984 3.89667 0.397498 4.1043C0.652012 4.31193 0.997206 4.42857 1.35714 4.42857H36.6429C37.0028 4.42857 37.348 4.31193 37.6025 4.1043C37.857 3.89667 38 3.61506 38 3.32143V1.10714C38 0.81351 37.857 0.531904 37.6025 0.324275C37.348 0.116645 37.0028 0 36.6429 0Z" fill="black"/>
</svg>
