<svg width="71" height="67" viewBox="0 0 71 67" fill="none" xmlns="http://www.w3.org/2000/svg">
<path d="M28.0491 4.35021C33.1028 4.06239 38.1709 4.69119 42.9129 6.19437C47.655 7.69754 51.9611 10.0403 55.542 13.0652C59.1229 16.09 61.8956 19.727 63.6739 23.7317C65.4521 27.7365 66.1948 32.0162 65.8519 36.2833C65.8156 36.5701 65.8483 36.8602 65.948 37.136C66.0477 37.4119 66.2124 37.6679 66.4322 37.8887C66.652 38.1094 66.9224 38.2904 67.2271 38.4208C67.5318 38.5511 67.8646 38.6281 68.2054 38.6472C68.5463 38.6662 68.8882 38.6269 69.2106 38.5316C69.533 38.4364 69.8292 38.287 70.0816 38.0926C70.334 37.8983 70.5372 37.6628 70.6791 37.4005C70.821 37.1381 70.8987 36.8543 70.9075 36.5659C71.2981 31.6904 70.4488 26.8008 68.4166 22.2254C66.3844 17.6499 63.2163 13.4946 59.1251 10.0384C55.0339 6.58221 50.1143 3.90518 44.6966 2.18705C39.2789 0.468929 33.4886 -0.250512 27.7144 0.077043C27.3822 0.0955984 27.0574 0.169236 26.7589 0.293753C26.4603 0.418269 26.1937 0.591225 25.9742 0.802745C25.7548 1.01427 25.5869 1.26021 25.48 1.52653C25.3732 1.79286 25.3295 2.07434 25.3515 2.35492C25.3734 2.6355 25.4606 2.90968 25.6081 3.1618C25.7556 3.41392 25.9604 3.63905 26.2109 3.82433C26.4614 4.00961 26.7527 4.15141 27.0681 4.24164C27.3835 4.33187 27.7168 4.36876 28.0491 4.35021ZM25.3616 12.7938C25.3753 12.5122 25.4547 12.2356 25.5952 11.98C25.7358 11.7244 25.9347 11.4947 26.1807 11.3041C26.4266 11.1136 26.7146 10.9659 27.0283 10.8696C27.342 10.7733 27.6751 10.7302 28.0086 10.7428C35.93 11.0343 43.4343 13.8225 49.0405 18.5571C54.6467 23.2917 57.9474 29.6287 58.2913 36.3176C58.3099 36.6005 58.2617 36.8837 58.1496 37.1508C58.0376 37.4179 57.8638 37.6635 57.6385 37.8735C57.4132 38.0834 57.1407 38.2535 56.8369 38.3739C56.5332 38.4943 56.2041 38.5625 55.8688 38.5747C55.5336 38.5869 55.1988 38.5428 54.8839 38.4449C54.569 38.347 54.2802 38.1973 54.0344 38.0045C53.7885 37.8116 53.5904 37.5795 53.4516 37.3215C53.3127 37.0636 53.2359 36.7849 53.2256 36.5017C52.9352 30.8851 50.163 25.5642 45.4555 21.5885C40.7481 17.6128 34.4472 15.2709 27.7956 15.0246C27.4621 15.0135 27.1345 14.947 26.8315 14.8289C26.5285 14.7107 26.2561 14.5432 26.03 14.3359C25.8039 14.1287 25.6284 13.8858 25.5137 13.6211C25.399 13.3565 25.3473 13.0753 25.3616 12.7938ZM15.4178 61.6611L21.0463 66.3796C21.5212 66.777 22.1627 67 22.8313 67C23.4998 67 24.1414 66.777 24.6162 66.3796L30.3715 61.5541C33.2417 59.1464 36.1084 56.7358 38.9716 54.3222C42.1641 51.6263 44.3382 48.1916 45.2189 44.4524C46.0996 40.7132 45.6475 36.8375 43.9196 33.3152C42.1917 29.793 39.2657 26.7825 35.5115 24.6645C31.7574 22.5464 27.3438 21.4159 22.8287 21.4159C18.3137 21.4159 13.9001 22.5464 10.1459 24.6645C6.3918 26.7825 3.46578 29.793 1.73789 33.3152C0.00999113 36.8375 -0.442182 40.7132 0.438547 44.4524C1.31928 48.1916 3.49335 51.6263 6.68585 54.3222C8.75474 56.0692 12.3449 59.0878 15.4178 61.6611ZM22.8262 45.4933C21.3132 45.4933 19.8622 44.9858 18.7924 44.0825C17.7226 43.1791 17.1215 41.9539 17.1215 40.6764C17.1215 39.3988 17.7226 38.1736 18.7924 37.2703C19.8622 36.3669 21.3132 35.8594 22.8262 35.8594C24.3392 35.8594 25.7902 36.3669 26.86 37.2703C27.9298 38.1736 28.5308 39.3988 28.5308 40.6764C28.5308 41.9539 27.9298 43.1791 26.86 44.0825C25.7902 44.9858 24.3392 45.4933 22.8262 45.4933Z" fill="black"/>
</svg>
