<svg width="71" height="67" viewBox="0 0 71 67" fill="none" xmlns="http://www.w3.org/2000/svg">
<path d="M5.54688 6.28125C3.70254 6.28125 2.21875 7.68145 2.21875 9.42188V15.7031C2.21875 17.4436 3.70254 18.8438 5.54688 18.8438H12.2031C14.0475 18.8438 15.5312 17.4436 15.5312 15.7031V9.42188C15.5312 7.68145 14.0475 6.28125 12.2031 6.28125H5.54688ZM26.625 8.375C24.1705 8.375 22.1875 10.2463 22.1875 12.5625C22.1875 14.8787 24.1705 16.75 26.625 16.75H66.5625C69.017 16.75 71 14.8787 71 12.5625C71 10.2463 69.017 8.375 66.5625 8.375H26.625ZM26.625 29.3125C24.1705 29.3125 22.1875 31.1838 22.1875 33.5C22.1875 35.8162 24.1705 37.6875 26.625 37.6875H66.5625C69.017 37.6875 71 35.8162 71 33.5C71 31.1838 69.017 29.3125 66.5625 29.3125H26.625ZM26.625 50.25C24.1705 50.25 22.1875 52.1213 22.1875 54.4375C22.1875 56.7537 24.1705 58.625 26.625 58.625H66.5625C69.017 58.625 71 56.7537 71 54.4375C71 52.1213 69.017 50.25 66.5625 50.25H26.625ZM2.21875 30.3594V36.6406C2.21875 38.3811 3.70254 39.7812 5.54688 39.7812H12.2031C14.0475 39.7812 15.5312 38.3811 15.5312 36.6406V30.3594C15.5312 28.6189 14.0475 27.2188 12.2031 27.2188H5.54688C3.70254 27.2188 2.21875 28.6189 2.21875 30.3594ZM5.54688 48.1562C3.70254 48.1562 2.21875 49.5564 2.21875 51.2969V57.5781C2.21875 59.3186 3.70254 60.7188 5.54688 60.7188H12.2031C14.0475 60.7188 15.5312 59.3186 15.5312 57.5781V51.2969C15.5312 49.5564 14.0475 48.1562 12.2031 48.1562H5.54688Z" fill="black"/>
</svg>
