<svg width="71" height="67" viewBox="0 0 71 67" fill="none" xmlns="http://www.w3.org/2000/svg">
<path d="M52.1406 48.1563C51.263 48.1563 50.405 47.9107 49.6753 47.4506C48.9455 46.9904 48.3768 46.3364 48.0409 45.5713C47.705 44.8061 47.6172 43.9641 47.7884 43.1518C47.9596 42.3396 48.3822 41.5934 49.0028 41.0078C49.6234 40.4221 50.4141 40.0233 51.2749 39.8618C52.1357 39.7002 53.0279 39.7831 53.8388 40.1C54.6496 40.417 55.3427 40.9537 55.8303 41.6423C56.3179 42.331 56.5781 43.1406 56.5781 43.9688C56.5781 45.0794 56.1106 46.1445 55.2784 46.9298C54.4462 47.7151 53.3175 48.1563 52.1406 48.1563ZM62.125 30.3594H49.9219C49.0392 30.3594 48.1927 30.6903 47.5685 31.2793C46.9444 31.8683 46.5938 32.6671 46.5938 33.5C46.5938 34.333 46.9444 35.1318 47.5685 35.7208C48.1927 36.3098 49.0392 36.6407 49.9219 36.6407H61.0156V51.2969H9.98438V36.6407H21.0781C21.9608 36.6407 22.8073 36.3098 23.4315 35.7208C24.0556 35.1318 24.4062 34.333 24.4062 33.5C24.4062 32.6671 24.0556 31.8683 23.4315 31.2793C22.8073 30.6903 21.9608 30.3594 21.0781 30.3594H8.875C7.40388 30.3594 5.99301 30.9109 4.95277 31.8925C3.91253 32.8742 3.32813 34.2055 3.32812 35.5938V52.3438C3.32812 53.732 3.91253 55.0634 4.95277 56.0451C5.99301 57.0267 7.40388 57.5782 8.875 57.5782H62.125C63.5961 57.5782 65.007 57.0267 66.0472 56.0451C67.0875 55.0634 67.6719 53.732 67.6719 52.3438V35.5938C67.6719 34.2055 67.0875 32.8742 66.0472 31.8925C65.007 30.9109 63.5961 30.3594 62.125 30.3594ZM24.5421 21.0658L32.1719 13.8711V33.5C32.1719 34.333 32.5225 35.1318 33.1467 35.7208C33.7708 36.3098 34.6173 36.6407 35.5 36.6407C36.3827 36.6407 37.2292 36.3098 37.8533 35.7208C38.4775 35.1318 38.8281 34.333 38.8281 33.5V13.8711L46.4579 21.0736C46.7674 21.3658 47.135 21.5975 47.5394 21.7556C47.9439 21.9137 48.3775 21.9951 48.8153 21.9951C49.2531 21.9951 49.6866 21.9137 50.0911 21.7556C50.4956 21.5975 50.8631 21.3658 51.1727 21.0736C51.4823 20.7815 51.7278 20.4347 51.8954 20.053C52.0629 19.6713 52.1492 19.2622 52.1492 18.849C52.1492 18.4359 52.0629 18.0268 51.8954 17.6451C51.7278 17.2634 51.4823 16.9166 51.1727 16.6244L37.8602 4.06191C37.551 3.76912 37.1836 3.53681 36.7791 3.37829C36.3745 3.21978 35.9408 3.13818 35.5028 3.13818C35.0647 3.13818 34.631 3.21978 34.2265 3.37829C33.8219 3.53681 33.4545 3.76912 33.1454 4.06191L19.8329 16.6244C19.5233 16.9166 19.2777 17.2634 19.1102 17.6451C18.9426 18.0268 18.8564 18.4359 18.8564 18.849C18.8564 19.6834 19.2076 20.4836 19.8329 21.0736C20.4581 21.6636 21.3061 21.9951 22.1903 21.9951C23.0745 21.9951 23.9225 21.6636 24.5477 21.0736L24.5421 21.0658Z" fill="black"/>
</svg>
